<?xml version="1.0" encoding="UTF-8"?>
<svg id="Layer_2" data-name="Layer 2" xmlns="http://www.w3.org/2000/svg" xmlns:xlink="http://www.w3.org/1999/xlink" viewBox="0 0 228.5 109.61">
  <defs>
    <style>
      .cls-1 {
        fill: url(#New_Gradient_Swatch_copy);
        stroke-width: 0px;
      }
    </style>
    <linearGradient id="New_Gradient_Swatch_copy" data-name="New Gradient Swatch copy" x1="0" y1="54.8" x2="228.5" y2="54.8" gradientUnits="userSpaceOnUse">
      <stop offset=".03" stop-color="#77abd5"/>
      <stop offset=".28" stop-color="#77abd5"/>
      <stop offset=".32" stop-color="#77abd5"/>
      <stop offset=".34" stop-color="#7ea5d1"/>
      <stop offset=".39" stop-color="#9795c8"/>
      <stop offset=".43" stop-color="#a090c5"/>
      <stop offset=".43" stop-color="#a090c5"/>
      <stop offset=".64" stop-color="#a090c5"/>
      <stop offset=".65" stop-color="#9b9cc4"/>
      <stop offset=".68" stop-color="#8ebdc1"/>
      <stop offset=".69" stop-color="#8ac9c1"/>
      <stop offset="1" stop-color="#8ac9c1"/>
    </linearGradient>
  </defs>
  <g id="Layer_3" data-name="Layer 3">
    <path class="cls-1" d="m69,109.61v-2.88,2.88H29.5C13.35,109.6.19,96.4,0,80.11h0V16.75C0,11.37,4.38,7,9.75,7s9.75,4.37,9.75,9.75v63.36c0,5.46,4.48,9.89,10,9.89s10-4.44,10-9.89V23.75c0-5.38,4.38-9.75,9.75-9.75s9.75,4.37,9.75,9.75v56.36c0,5.51,4.49,10,10,10s10-4.55,10-10.35v-34.5c0-24.95,18.95-45.25,42.25-45.25h65c23.3,0,42.25,20.3,42.25,45.25v50.24l-54.99.11c-8.55,0-15.51-6.95-15.51-15.5v-34.86c0-17.23,12.67-31.25,28.25-31.25s28.25,14.02,28.25,31.25-12.67,31.25-28.25,31.25h-15.58v-5.5h15.58c12.54,0,22.75-11.55,22.75-25.75s-10.21-25.75-22.75-25.75-22.75,11.55-22.75,25.75v34.86c0,5.51,4.49,10,10,10l49.5-.1v-44.76c0-21.92-16.49-39.75-36.75-39.75h-65c-20.26,0-36.75,17.83-36.75,39.75v34.5c0,8.89-6.81,15.85-15.5,15.85s-15.5-6.95-15.5-15.5V23.75c0-2.34-1.91-4.25-4.25-4.25s-4.25,1.91-4.25,4.25v56.36c0,8.49-6.95,15.39-15.5,15.39s-15.5-6.91-15.5-15.39V16.75c0-2.34-1.9-4.25-4.25-4.25s-4.25,1.91-4.25,4.25v63.02c0,13.42,10.77,24.34,24,24.34h39.5c13.16,0,23.88-10.81,24-24.14v-34.72c0-17.23,12.67-31.25,28.25-31.25s28.25,14.02,28.25,31.25-12.67,31.25-28.25,31.25h-15.58v-5.5h15.58c12.54,0,22.75-11.55,22.75-25.75s-10.21-25.75-22.75-25.75-22.75,11.55-22.75,25.75v34.5c0,.08,0,.16,0,.24v.11c-.19,16.3-13.35,29.5-29.5,29.5Z"/>
  </g>
</svg>